<svg width="22" height="22" viewBox="0 0 22 22" fill="none" xmlns="http://www.w3.org/2000/svg">
<path fill-rule="evenodd" clip-rule="evenodd" d="M4.37203 4.37216C5.38905 3.35514 6.8987 2.97913 8.79984 2.97913H13.1998C15.101 2.97913 16.6106 3.35514 17.6276 4.37216C18.6447 5.38917 19.0207 6.89882 19.0207 8.79996C19.0207 9.17966 18.7129 9.48746 18.3332 9.48746C17.9535 9.48746 17.6457 9.17966 17.6457 8.79996C17.6457 7.03443 17.2884 5.97742 16.6554 5.34443C16.0224 4.71144 14.9654 4.35413 13.1998 4.35413H8.79984C7.03431 4.35413 5.97729 4.71144 5.34431 5.34443C4.71132 5.97742 4.354 7.03443 4.354 8.79996V13.2C4.354 14.9655 4.71132 16.0225 5.34431 16.6555C5.97729 17.2885 7.03431 17.6458 8.79984 17.6458C9.17953 17.6458 9.48734 17.9536 9.48734 18.3333C9.48734 18.713 9.17953 19.0208 8.79984 19.0208C6.8987 19.0208 5.38905 18.6448 4.37203 17.6278C3.35502 16.6107 2.979 15.1011 2.979 13.2V8.79996C2.979 6.89882 3.35502 5.38917 4.37203 4.37216Z" fill="#F1F1F1"/>
<path fill-rule="evenodd" clip-rule="evenodd" d="M6.67516 6.67528C7.3828 5.96764 8.4112 5.72913 9.62484 5.72913H12.3748C13.7133 5.72913 14.8272 6.01669 15.5279 6.90854C15.7625 7.2071 15.7107 7.6393 15.4121 7.87389C15.1135 8.10847 14.6813 8.05661 14.4467 7.75804C14.1391 7.36656 13.5664 7.10413 12.3748 7.10413H9.62484C8.54681 7.10413 7.97104 7.32394 7.64743 7.64755C7.32382 7.97117 7.104 8.54693 7.104 9.62496V12.375C7.104 13.5667 7.36659 14.1422 7.75253 14.4499C8.04944 14.6865 8.09828 15.1191 7.86161 15.416C7.62494 15.7129 7.19239 15.7617 6.89548 15.5251C6.01642 14.8244 5.729 13.7132 5.729 12.375V9.62496C5.729 8.41132 5.96752 7.38292 6.67516 6.67528Z" fill="#F1F1F1"/>
<path fill-rule="evenodd" clip-rule="evenodd" d="M7.34253 1.14581C7.72223 1.14581 8.03003 1.45362 8.03003 1.83331V3.66665C8.03003 4.04634 7.72223 4.35415 7.34253 4.35415C6.96283 4.35415 6.65503 4.04634 6.65503 3.66665V1.83331C6.65503 1.45362 6.96283 1.14581 7.34253 1.14581Z" fill="#F1F1F1"/>
<path fill-rule="evenodd" clip-rule="evenodd" d="M11 1.14581C11.3797 1.14581 11.6875 1.45362 11.6875 1.83331V3.66665C11.6875 4.04634 11.3797 4.35415 11 4.35415C10.6203 4.35415 10.3125 4.04634 10.3125 3.66665V1.83331C10.3125 1.45362 10.6203 1.14581 11 1.14581Z" fill="#F1F1F1"/>
<path fill-rule="evenodd" clip-rule="evenodd" d="M14.6665 1.14581C15.0462 1.14581 15.354 1.45362 15.354 1.83331V3.66665C15.354 4.04634 15.0462 4.35415 14.6665 4.35415C14.2868 4.35415 13.979 4.04634 13.979 3.66665V1.83331C13.979 1.45362 14.2868 1.14581 14.6665 1.14581Z" fill="#F1F1F1"/>
<path fill-rule="evenodd" clip-rule="evenodd" d="M17.6458 7.33331C17.6458 6.95362 17.9536 6.64581 18.3333 6.64581H20.1666C20.5463 6.64581 20.8541 6.95362 20.8541 7.33331C20.8541 7.71301 20.5463 8.02081 20.1666 8.02081H18.3333C17.9536 8.02081 17.6458 7.71301 17.6458 7.33331Z" fill="#F1F1F1"/>
<path fill-rule="evenodd" clip-rule="evenodd" d="M7.34253 17.6458C7.72223 17.6458 8.03003 17.9536 8.03003 18.3333V20.1666C8.03003 20.5463 7.72223 20.8541 7.34253 20.8541C6.96283 20.8541 6.65503 20.5463 6.65503 20.1666V18.3333C6.65503 17.9536 6.96283 17.6458 7.34253 17.6458Z" fill="#F1F1F1"/>
<path fill-rule="evenodd" clip-rule="evenodd" d="M1.14575 7.33331C1.14575 6.95362 1.45356 6.64581 1.83325 6.64581H3.66659C4.04628 6.64581 4.35409 6.95362 4.35409 7.33331C4.35409 7.71301 4.04628 8.02081 3.66659 8.02081H1.83325C1.45356 8.02081 1.14575 7.71301 1.14575 7.33331Z" fill="#F1F1F1"/>
<path fill-rule="evenodd" clip-rule="evenodd" d="M1.14575 11C1.14575 10.6203 1.45356 10.3125 1.83325 10.3125H3.66659C4.04628 10.3125 4.35409 10.6203 4.35409 11C4.35409 11.3797 4.04628 11.6875 3.66659 11.6875H1.83325C1.45356 11.6875 1.14575 11.3797 1.14575 11Z" fill="#F1F1F1"/>
<path fill-rule="evenodd" clip-rule="evenodd" d="M1.14575 14.6666C1.14575 14.2869 1.45356 13.9791 1.83325 13.9791H3.66659C4.04628 13.9791 4.35409 14.2869 4.35409 14.6666C4.35409 15.0463 4.04628 15.3541 3.66659 15.3541H1.83325C1.45356 15.3541 1.14575 15.0463 1.14575 14.6666Z" fill="#F1F1F1"/>
<path fill-rule="evenodd" clip-rule="evenodd" d="M15.3174 14.8133C14.8921 14.8133 14.5474 15.158 14.5474 15.5833C14.5474 16.0086 14.8921 16.3533 15.3174 16.3533C15.7426 16.3533 16.0874 16.0086 16.0874 15.5833C16.0874 15.158 15.7426 14.8133 15.3174 14.8133ZM13.1724 15.5833C13.1724 14.3986 14.1327 13.4383 15.3174 13.4383C16.502 13.4383 17.4624 14.3986 17.4624 15.5833C17.4624 16.7679 16.502 17.7283 15.3174 17.7283C14.1327 17.7283 13.1724 16.7679 13.1724 15.5833Z" fill="#F1F1F1"/>
<path fill-rule="evenodd" clip-rule="evenodd" d="M13.8649 11.755C13.8207 11.6807 13.7415 11.675 13.6981 11.7008L13.6925 11.7041L12.8494 12.1951C12.7442 12.2543 12.7036 12.3967 12.767 12.5053L12.7683 12.5075C13.0617 13.0148 13.1745 13.6346 12.8653 14.1719C12.5559 14.7098 11.9628 14.9233 11.3757 14.9233C11.2512 14.9233 11.1465 15.028 11.1465 15.1525V16.005C11.1465 16.1457 11.2553 16.2362 11.3632 16.2343L11.3757 16.2341C11.9628 16.2341 12.5559 16.4477 12.8653 16.9856C13.1745 17.5229 13.0617 18.1427 12.7683 18.65L12.767 18.6522C12.7075 18.7542 12.7366 18.8964 12.8584 18.9676C12.8583 18.9676 12.8585 18.9677 12.8584 18.9676L13.689 19.4514C13.7487 19.4845 13.828 19.4645 13.8649 19.4025L13.8661 19.4005L13.9185 19.3131C14.2117 18.8091 14.6904 18.4044 15.3082 18.4044C15.9259 18.4044 16.4046 18.8091 16.6978 19.3132L16.7514 19.4025C16.7956 19.4768 16.8748 19.4825 16.9182 19.4567L16.9238 19.4534L17.7669 18.9624C17.8721 18.9032 17.9127 18.7608 17.8493 18.6522L17.848 18.65C17.5546 18.1427 17.4418 17.5229 17.751 16.9856C18.0604 16.4477 18.6535 16.2342 19.2407 16.2342C19.3651 16.2342 19.4698 16.1295 19.4698 16.005V15.1525C19.4698 15.028 19.3651 14.9233 19.2407 14.9233C18.6535 14.9233 18.0604 14.7098 17.751 14.1719C17.4418 13.6346 17.5546 13.0148 17.848 12.5075L17.8493 12.5053C17.9088 12.4032 17.8797 12.261 17.7577 12.1898C17.7577 12.1897 17.7578 12.1898 17.7577 12.1898L16.9273 11.7061C16.8676 11.673 16.7883 11.693 16.7514 11.755L16.7502 11.7571L16.6978 11.8444C16.4046 12.3484 15.9259 12.7531 15.3082 12.7531C14.6904 12.7531 14.2117 12.3484 13.9185 11.8444L13.8649 11.755ZM15.0457 11.0505C14.6319 10.3567 13.7238 10.0878 12.9981 10.5173L12.1702 10.9995C11.3997 11.4366 11.1306 12.4272 11.5785 13.1967C11.6783 13.3696 11.6765 13.4579 11.6719 13.4852C11.6505 13.5029 11.5749 13.5483 11.3757 13.5483C10.4918 13.5483 9.77148 14.2686 9.77148 15.1525V16.005C9.77148 16.8884 10.4835 17.6212 11.3804 17.6092C11.5761 17.6099 11.6506 17.6547 11.6719 17.6723C11.6765 17.6996 11.6783 17.7879 11.5785 17.9608C11.1258 18.7385 11.4084 19.7136 12.1659 20.1555L13.0005 20.6416L13.0054 20.6444C13.7152 21.05 14.6243 20.8136 15.0457 20.107C15.0459 20.1066 15.0462 20.1062 15.0464 20.1058L15.1002 20.0162L15.1058 20.0067C15.205 19.8351 15.2817 19.7916 15.3082 19.7814C15.3346 19.7916 15.4113 19.8351 15.5105 20.0067L15.5699 20.1058C15.5701 20.1062 15.5704 20.1066 15.5706 20.107C15.9844 20.8008 16.8925 21.0697 17.6182 20.6402L18.4461 20.158C19.2166 19.7209 19.4857 18.7303 19.0378 17.9608C18.938 17.788 18.9398 17.6996 18.9444 17.6723C18.9658 17.6546 19.0414 17.6092 19.2407 17.6092C20.1245 17.6092 20.8448 16.8889 20.8448 16.005V15.1525C20.8448 14.2686 20.1245 13.5483 19.2407 13.5483C19.0414 13.5483 18.9658 13.5029 18.9444 13.4852C18.9398 13.4579 18.938 13.3695 19.0378 13.1966C19.4904 12.419 19.2079 11.4438 18.4504 11.002L17.6158 10.5159L17.6109 10.5131C16.9011 10.1075 15.992 10.3439 15.5706 11.0505C15.5703 11.0509 15.5701 11.0513 15.5699 11.0517L15.5161 11.1413L15.5105 11.1508C15.4113 11.3224 15.3346 11.3659 15.3082 11.3761C15.2817 11.3659 15.205 11.3224 15.1058 11.1508L15.0464 11.0517C15.0462 11.0513 15.046 11.0509 15.0457 11.0505Z" fill="#F1F1F1"/>
</svg>
