<svg width="22" height="22" viewBox="0 0 22 22" fill="none" xmlns="http://www.w3.org/2000/svg">
<path fill-rule="evenodd" clip-rule="evenodd" d="M10.9999 2.52081C6.31961 2.52081 2.52075 6.31968 2.52075 11C2.52075 15.6803 6.31961 19.4791 10.9999 19.4791C15.6802 19.4791 19.4791 15.6803 19.4791 11C19.4791 6.31968 15.6802 2.52081 10.9999 2.52081ZM1.14575 11C1.14575 5.56028 5.56022 1.14581 10.9999 1.14581C16.4396 1.14581 20.8541 5.56028 20.8541 11C20.8541 16.4397 16.4396 20.8541 10.9999 20.8541C5.56022 20.8541 1.14575 16.4397 1.14575 11Z" fill="#F1F1F1"/>
<path fill-rule="evenodd" clip-rule="evenodd" d="M10.6606 6.19666C11.0403 6.19666 11.3481 6.50446 11.3481 6.88416V10.6425C11.3481 10.7832 11.4019 10.9872 11.5214 11.1968C11.6409 11.4064 11.7891 11.5564 11.9095 11.6277L11.9113 11.6288L11.9113 11.6288L14.753 13.3246C15.079 13.5192 15.1856 13.9413 14.991 14.2673C14.7964 14.5934 14.3744 14.6999 14.0483 14.5054L11.2085 12.8106C11.2082 12.8104 11.2079 12.8102 11.2075 12.81C10.8334 12.588 10.5327 12.2387 10.327 11.878C10.1211 11.5169 9.97314 11.0792 9.97314 10.6425V6.88416C9.97314 6.50446 10.2809 6.19666 10.6606 6.19666Z" fill="#F1F1F1"/>
</svg>
